<svg width="32" height="28" viewBox="0 0 32 28" fill="none" xmlns="http://www.w3.org/2000/svg">
<path d="M11.2 16.6667H12.9778C12.9778 17.6267 14.1956 18.4444 15.6445 18.4444C17.0933 18.4444 18.3111 17.6267 18.3111 16.6667C18.3111 15.6889 17.3867 15.3333 15.4311 14.8622C13.5467 14.3911 11.2 13.8044 11.2 11.3333C11.2 9.74222 12.5067 8.39111 14.3111 7.93778V6H16.9778V7.93778C18.7822 8.39111 20.0889 9.74222 20.0889 11.3333H18.3111C18.3111 10.3733 17.0933 9.55556 15.6445 9.55556C14.1956 9.55556 12.9778 10.3733 12.9778 11.3333C12.9778 12.3111 13.9022 12.6667 15.8578 13.1378C17.7422 13.6089 20.0889 14.1956 20.0889 16.6667C20.0889 18.2578 18.7822 19.6089 16.9778 20.0622V22H14.3111V20.0622C12.5067 19.6089 11.2 18.2578 11.2 16.6667Z" fill="#444647"/>
</svg>
